<svg xmlns="http://www.w3.org/2000/svg" version="1.1" xmlns:xlink="http://www.w3.org/1999/xlink" xmlns:svgjs="http://svgjs.dev/svgjs" width="100%" height="100%" viewBox="0 0 1000 600"><rect width="1000" height="600" x="0" y="0" fill="#"/><g><circle r="166.66666666666666" cx="458.66987101236987" cy="480.8921318945628" fill="#8aaae5" transform="matrix(0.42807738606098344,0,0,0.4280773860609833,0,94.14093740256268)"/><path d="M422.79086880593957 420.45215154470964L387.99735258405343 420.45215154470964L387.99735258405343 553.8658921991798L374.85570835382356 553.8658921991798L374.85570835382356 420.45215154470964L340.0621921319375 420.45215154470964L340.0621921319375 407.94732707894025L422.79086880593957 407.94732707894025L422.79086880593957 420.45215154470964ZM476.4284607852698 461.5559727053405L463.9236363195004 461.5559727053405Q460.16061043859764 461.5559727053405 456.83177985164514 463.00329035184154Q453.53189561762264 464.42166164541266 451.10040197150084 466.85315529153445Q448.639961972449 469.3135952905863 447.22159067887793 472.61347952460875Q445.8032193853069 475.91336375863125 445.8032193853069 479.6763896395341L445.8032193853069 479.6763896395341L445.8032193853069 553.8658921991798L433.2694485666074 553.8658921991798L433.2694485666074 449.65902165110157L437.46666974146063 449.65902165110157L444.2690626800157 460.2533868234895Q448.5531229136589 454.43516988455514 455.00815961705376 451.01950023881255Q461.4631963204486 447.63277694600004 469.10503349397436 447.63277694600004L469.10503349397436 447.63277694600004L476.4284607852698 447.63277694600004L476.4284607852698 461.5559727053405ZM577.2775543934654 515.7145990374111L577.2775543934654 520.0854983298444Q577.2775543934654 527.4957646799301 574.2671336887431 534.0086940891849Q571.2856593369511 540.5216234984398 566.2489939271272 545.4135571436134Q561.2123285173034 550.3054907887872 554.5257209904685 553.1132870229992Q547.8680598165633 555.8921369042813 540.4288471135478 555.8921369042813L540.4288471135478 555.8921369042813L529.95026735288 555.8921369042813Q522.5400010027945 555.8921369042813 515.8533934759594 553.1132870229992Q509.1957323020544 550.3054907887872 504.15906689223067 545.4135571436134Q499.1224014824069 540.5216234984398 496.1119807776846 534.0086940891849Q493.1305064258924 527.4957646799301 493.1305064258924 520.0854983298444L493.1305064258924 520.0854983298444L493.1305064258924 514.2672813909101L506.2432043031922 512.1541976270184L506.2432043031922 520.0854983298444Q506.2432043031922 524.9774319750181 508.24050265536374 529.1746531498712Q510.2088546546052 533.4008206776543 513.5666315944877 536.6138658528869Q516.9244085343703 539.8269110281192 521.3532005326635 541.6505312627105Q525.7819925309568 543.474151497302 530.6739261761306 543.474151497302L530.6739261761306 543.474151497302L539.8209737020175 543.474151497302Q544.712907347191 543.474151497302 549.0838066396243 541.6505312627105Q553.4547059320575 539.8269110281192 556.8124828719401 536.6138658528869Q560.1702598118227 533.4008206776543 562.1675581639943 529.1746531498712Q564.1648565161656 524.9774319750181 564.1648565161656 520.0854983298444L564.1648565161656 520.0854983298444L564.1648565161656 515.7145990374111Q564.1648565161656 508.15960092267545 561.2123285173034 503.1808282187117Q558.2598005184411 498.202055514748 553.3678668732675 494.69954681021534Q548.4759332280939 491.1680917527527 542.3103600539994 488.7365981066309Q536.1737332328346 486.3051044605091 529.6608038235797 483.8446644614572Q523.1478744143249 481.4131708153354 516.9823012402303 478.4606428164732Q510.8167280661357 475.508114817611 505.953740773892 471.0793228193176Q501.0618071287183 466.6505308210243 498.10927912985613 460.2533868234895Q495.1567511309939 453.82729647302466 495.1567511309939 444.4776244766277L495.1567511309939 444.4776244766277L495.1567511309939 441.7277209482756Q495.1567511309939 434.28850824526 497.964547365206 427.7755788360051Q500.7433972464881 421.2626494267502 505.6353308916618 416.37071578157656Q510.5272645368354 411.5077284893329 517.0980866519503 408.6999322551208Q523.6399624141352 405.8921360209087 531.079175117151 405.8921360209087L531.079175117151 405.8921360209087L540.4288471135478 405.8921360209087Q547.8680598165633 405.8921360209087 554.3809892258182 408.6999322551208Q560.8939186350733 411.5077284893329 565.7858522802469 416.37071578157656Q570.6777859254205 421.2626494267502 573.4566358067027 427.7755788360051Q576.2644320409147 434.28850824526 576.2644320409147 441.7277209482756L576.2644320409147 441.7277209482756L576.2644320409147 445.4907468291784L563.1227878106849 447.63277694600004L563.1227878106849 441.7277209482756Q563.1227878106849 436.83578730310194 561.2991675760934 432.6096197753188Q559.4755473415021 428.38345224753556 556.3203948721298 425.2282997781632Q553.1652424027575 422.07314730879085 548.9390748749743 420.2495270741995Q544.712907347191 418.4259068396081 539.8209737020175 418.4259068396081L539.8209737020175 418.4259068396081L531.6870485286813 418.4259068396081Q526.7951148835077 418.4259068396081 522.5689473557245 420.2495270741995Q518.3717261808713 422.07314730879085 515.158681005639 425.2282997781632Q511.9456358304065 428.38345224753556 510.12201559581507 432.6096197753188Q508.26944900829375 436.83578730310194 508.26944900829375 441.7277209482756L508.26944900829375 441.7277209482756L508.26944900829375 444.4776244766277Q508.26944900829375 451.48264188569294 511.221977007156 456.2877364720765Q514.1745050060181 461.0638847055301 519.0664386511919 464.47955435127267Q523.9583722963655 467.8662776440852 530.1239454704601 470.3556639960671Q536.2605722916248 472.873996700979 542.7735017008797 475.4502221117509Q549.2864311101346 478.05539387545286 555.4520042842291 481.1526536389652Q561.6175774583237 484.2499134024775 566.4805647505673 488.7944908124909Q571.3724983957411 493.3101218695743 574.3250263946034 499.8230512788292Q577.2775543934654 506.3359806880841 577.2775543934654 515.7145990374111L577.2775543934654 515.7145990374111Z " fill="#ffffff" transform="matrix(0.42807738606098344,0,0,0.4280773860609833,0,94.14093740256268)"/><path d="M791.3985500803536 420.45215154470964L756.6050338584676 420.45215154470964L756.6050338584676 553.8658921991798L743.4633896282377 553.8658921991798L743.4633896282377 420.45215154470964L708.6698734063516 420.45215154470964L708.6698734063516 407.94732707894025L791.3985500803536 407.94732707894025L791.3985500803536 420.45215154470964ZM869.3510785209022 525.2668955043183L869.3510785209022 525.2668955043183Q869.3510785209022 531.577200443063 866.9774775806405 537.1638465585572Q864.5749302874486 542.7794390269814 860.4066554655254 546.9477138489046Q856.2383806436025 551.1159886708276 850.6227881751782 553.5185359640195Q845.036142059684 555.8921369042813 838.7258371209392 555.8921369042813L838.7258371209392 555.8921369042813L830.389287477093 555.8921369042813Q824.0789825383482 555.8921369042813 818.492336422854 553.5185359640195Q812.8767439544298 551.1159886708276 808.7084691325066 546.9477138489046Q804.5401943105836 542.7794390269814 802.1376470173917 537.1638465585572Q799.7640460771299 531.577200443063 799.7640460771299 525.2668955043183L799.7640460771299 525.2668955043183L799.7640460771299 478.258018345963Q799.7640460771299 471.94771340721826 802.1376470173917 466.3610672917241Q804.5401943105836 460.74547482329984 808.7084691325066 456.57720000137675Q812.8767439544298 452.4089251794536 818.492336422854 450.0063778862618Q824.0789825383482 447.63277694600004 830.389287477093 447.63277694600004L830.389287477093 447.63277694600004L838.7258371209392 447.63277694600004Q845.036142059684 447.63277694600004 850.6227881751782 450.0063778862618Q856.2383806436025 452.4089251794536 860.4066554655254 456.57720000137675Q864.5749302874486 460.74547482329984 866.9774775806405 466.3610672917241Q869.3510785209022 471.94771340721826 869.3510785209022 478.258018345963L869.3510785209022 478.258018345963L869.3510785209022 502.7755792776914L812.2688705428994 502.7755792776914L812.2688705428994 525.9905543275688Q812.2688705428994 529.7535802084717 813.6872418364704 533.0534644424941Q815.1056131300414 536.3533486765166 817.5660531290933 538.8137886755685Q819.997546775215 541.2452823216903 823.2974310092376 542.6636536152614Q826.6262615961901 544.0820249088324 830.389287477093 544.0820249088324L830.389287477093 544.0820249088324L838.7258371209392 544.0820249088324Q842.4888630018421 544.0820249088324 845.7887472358644 542.6636536152614Q849.117577822817 541.2452823216903 851.5490714689389 538.8137886755685Q853.9805651150606 536.3533486765166 855.4278827615618 533.0534644424941Q856.8462540551328 529.7535802084717 856.8462540551328 525.9905543275688L856.8462540551328 525.9905543275688L856.8462540551328 519.0723759772936L869.3510785209022 521.0986206823952L869.3510785209022 525.2668955043183ZM856.8462540551328 493.0206583402741L856.8462540551328 477.53435952271246Q856.8462540551328 473.77133364180963 855.4278827615618 470.4714494077872Q853.9805651150606 467.1715651737647 851.5490714689389 464.71112517471283Q849.117577822817 462.27963152859104 845.7887472358644 460.8612602350199Q842.4888630018421 459.41394258851886 838.7258371209392 459.41394258851886L838.7258371209392 459.41394258851886L830.389287477093 459.41394258851886Q826.6262615961901 459.41394258851886 823.2974310092376 460.8612602350199Q819.997546775215 462.27963152859104 817.5660531290933 464.71112517471283Q815.1056131300414 467.1715651737647 813.6872418364704 470.4714494077872Q812.2688705428994 473.77133364180963 812.2688705428994 477.53435952271246L812.2688705428994 477.53435952271246L812.2688705428994 493.0206583402741L856.8462540551328 493.0206583402741ZM964.0056526020734 525.2668955043183L964.0056526020734 525.2668955043183Q964.0056526020734 531.577200443063 961.6031053088815 537.1638465585572Q959.2295043686196 542.7794390269814 955.0322831937666 546.9477138489046Q950.8640083718434 551.1159886708276 945.2773622563492 553.5185359640195Q939.690716140855 555.8921369042813 933.3804112021102 555.8921369042813L933.3804112021102 555.8921369042813L925.014915205334 555.8921369042813Q918.7046102665892 555.8921369042813 913.117964151095 553.5185359640195Q907.531318035601 551.1159886708276 903.3630432136778 546.9477138489046Q899.1658220388246 542.7794390269814 896.7922210985629 537.1638465585572Q894.389673805371 531.577200443063 894.389673805371 525.2668955043183L894.389673805371 525.2668955043183L894.389673805371 478.258018345963Q894.389673805371 471.94771340721826 896.7922210985629 466.3610672917241Q899.1658220388246 460.74547482329984 903.3630432136778 456.57720000137675Q907.531318035601 452.4089251794536 913.117964151095 450.0063778862618Q918.7046102665892 447.63277694600004 925.014915205334 447.63277694600004L925.014915205334 447.63277694600004L933.3804112021102 447.63277694600004Q939.690716140855 447.63277694600004 945.2773622563492 450.0063778862618Q950.8640083718434 452.4089251794536 955.0322831937666 456.57720000137675Q959.2295043686196 460.74547482329984 961.6031053088815 466.3610672917241Q964.0056526020734 471.94771340721826 964.0056526020734 478.258018345963L964.0056526020734 478.258018345963L964.0056526020734 482.4262931678862L951.4718817833738 484.45253787298765L951.4718817833738 477.53435952271246Q951.4718817833738 473.77133364180963 950.0535104898028 470.4714494077872Q948.6351391962318 467.1715651737647 946.2036455501099 464.71112517471283Q943.7432055510582 462.27963152859104 940.4433213170356 460.8612602350199Q937.143437083013 459.41394258851886 933.3804112021102 459.41394258851886L933.3804112021102 459.41394258851886L925.014915205334 459.41394258851886Q921.2518893244311 459.41394258851886 917.9520050904088 460.8612602350199Q914.6521208563862 462.27963152859104 912.1916808573343 464.71112517471283Q909.7601872112126 467.1715651737647 908.3418159176414 470.4714494077872Q906.9234446240704 473.77133364180963 906.9234446240704 477.53435952271246L906.9234446240704 477.53435952271246L906.9234446240704 525.9905543275688Q906.9234446240704 529.7535802084717 908.3418159176414 533.0534644424941Q909.7601872112126 536.3533486765166 912.1916808573343 538.8137886755685Q914.6521208563862 541.2452823216903 917.9520050904088 542.6636536152614Q921.2518893244311 544.0820249088324 925.014915205334 544.0820249088324L925.014915205334 544.0820249088324L933.3804112021102 544.0820249088324Q937.143437083013 544.0820249088324 940.4433213170356 542.6636536152614Q943.7432055510582 541.2452823216903 946.2036455501099 538.8137886755685Q948.6351391962318 536.3533486765166 950.0535104898028 533.0534644424941Q951.4718817833738 529.7535802084717 951.4718817833738 525.9905543275688L951.4718817833738 525.9905543275688L951.4718817833738 519.0723759772936L964.0056526020734 521.0986206823952L964.0056526020734 525.2668955043183ZM1058.6312803303144 553.8658921991798L1046.1264558645448 553.8658921991798L1046.1264558645448 477.53435952271246Q1046.1264558645448 473.77133364180963 1044.7080845709738 470.4714494077872Q1043.2897132774028 467.1715651737647 1040.8292732783511 464.71112517471283Q1038.3977796322292 462.27963152859104 1035.0978953982067 460.8612602350199Q1031.7690648112543 459.41394258851886 1028.0060389303512 459.41394258851886L1028.0060389303512 459.41394258851886L1019.6694892865049 459.41394258851886Q1015.9064634056023 459.41394258851886 1012.6065791715797 460.8612602350199Q1009.2777485846271 462.27963152859104 1006.8462549385055 464.71112517471283Q1004.4147612923836 467.1715651737647 1002.9674436458826 470.4714494077872Q1001.5490723523116 473.77133364180963 1001.5490723523116 477.53435952271246L1001.5490723523116 477.53435952271246L1001.5490723523116 553.8658921991798L989.0442478865419 553.8658921991798L989.0442478865419 407.94732707894025L1001.5490723523116 407.94732707894025L1001.5490723523116 458.4008202359681Q1005.8331325859546 453.3352084732143 1011.8250276424691 450.46951953314215Q1017.8458690519136 447.63277694600004 1024.850886460979 447.63277694600004L1024.850886460979 447.63277694600004L1028.0060389303512 447.63277694600004Q1034.3163438690963 447.63277694600004 1039.9319363375203 450.0063778862618Q1045.5185824530145 452.4089251794536 1049.6868572749377 456.57720000137675Q1053.8551320968609 460.74547482329984 1056.2576793900525 466.3610672917241Q1058.6312803303144 471.94771340721826 1058.6312803303144 478.258018345963L1058.6312803303144 478.258018345963L1058.6312803303144 553.8658921991798ZM1126.8288878334456 461.5559727053405L1114.2951170147462 461.5559727053405Q1110.532091133843 461.5559727053405 1107.2322068998205 463.00329035184154Q1103.9323226657984 464.42166164541266 1101.4718826667463 466.85315529153445Q1099.0403890206248 469.3135952905863 1097.6220177270534 472.61347952460875Q1096.2036464334824 475.91336375863125 1096.2036464334824 479.6763896395341L1096.2036464334824 479.6763896395341L1096.2036464334824 553.8658921991798L1083.669875614783 553.8658921991798L1083.669875614783 449.65902165110157L1087.8381504367062 449.65902165110157L1094.6694897281914 460.2533868234895Q1098.9535499618346 454.43516988455514 1105.4085866652294 451.01950023881255Q1111.8636233686243 447.63277694600004 1119.50546054215 447.63277694600004L1119.50546054215 447.63277694600004L1126.8288878334456 447.63277694600004L1126.8288878334456 461.5559727053405ZM1161.2171551143115 424.6204263666328L1146.6571395905103 424.6204263666328L1146.6571395905103 407.94732707894025L1161.2171551143115 407.94732707894025L1161.2171551143115 424.6204263666328ZM1160.2040327617606 553.8658921991798L1147.699208295991 553.8658921991798L1147.699208295991 449.65902165110157L1160.2040327617606 449.65902165110157L1160.2040327617606 553.8658921991798ZM1259.0268816648545 449.65902165110157L1222.062388973217 553.8658921991798L1215.8678694461923 553.8658921991798L1178.9323231074845 449.65902165110157L1191.4371475732542 449.65902165110157L1218.6177729745446 528.6246724442008L1219.0230219155646 534.0086940891849L1219.4282708565847 528.6246724442008L1246.493110846155 449.65902165110157L1259.0268816648545 449.65902165110157ZM1405.6691056083446 515.7145990374111L1405.6691056083446 520.0854983298444Q1405.6691056083446 527.4957646799301 1402.6586849036225 534.0086940891849Q1399.6482641989 540.5216234984398 1394.6115987890767 545.4135571436134Q1389.5749333792528 550.3054907887872 1382.9172722053477 553.1132870229992Q1376.2596110314425 555.8921369042813 1368.820398328427 555.8921369042813L1368.820398328427 555.8921369042813L1358.3418185677592 555.8921369042813Q1350.9026058647437 555.8921369042813 1344.2449446908386 553.1132870229992Q1337.587283516934 550.3054907887872 1332.55061810711 545.4135571436134Q1327.5139526972862 540.5216234984398 1324.5035319925637 534.0086940891849Q1321.4931112878417 527.4957646799301 1321.4931112878417 520.0854983298444L1321.4931112878417 520.0854983298444L1321.4931112878417 514.2672813909101L1334.6347555180714 512.1541976270184L1334.6347555180714 520.0854983298444Q1334.6347555180714 524.9774319750181 1336.6031075173128 529.1746531498712Q1338.6004058694843 533.4008206776543 1341.958182809367 536.6138658528869Q1345.3159597492495 539.8269110281192 1349.7447517475425 541.6505312627105Q1354.173543745836 543.474151497302 1359.0654773910096 543.474151497302L1359.0654773910096 543.474151497302L1368.2125249168967 543.474151497302Q1373.1044585620702 543.474151497302 1377.4753578545037 541.6505312627105Q1381.8462571469368 539.8269110281192 1385.2040340868193 536.6138658528869Q1388.561811026702 533.4008206776543 1390.5591093788735 529.1746531498712Q1392.5274613781148 524.9774319750181 1392.5274613781148 520.0854983298444L1392.5274613781148 520.0854983298444L1392.5274613781148 515.7145990374111Q1392.5274613781148 508.15960092267545 1389.5749333792528 503.1808282187117Q1386.6224053803903 498.202055514748 1381.7304717352167 494.69954681021534Q1376.867484442973 491.1680917527527 1370.7019112688786 488.7365981066309Q1364.5363380947838 486.3051044605091 1358.023408685529 483.8446644614572Q1351.510479276274 481.4131708153354 1345.3738524551095 478.4606428164732Q1339.2082792810147 475.508114817611 1334.3163456358411 471.0793228193176Q1329.4244119906675 466.6505308210243 1326.5008303447353 460.2533868234895Q1323.5483023458733 453.82729647302466 1323.5483023458733 444.4776244766277L1323.5483023458733 444.4776244766277L1323.5483023458733 441.7277209482756Q1323.5483023458733 434.28850824526 1326.3271522271552 427.7755788360051Q1329.134948461367 421.2626494267502 1334.026882106541 416.37071578157656Q1338.8898693987849 411.5077284893329 1345.4606915138997 408.6999322551208Q1352.0315136290146 405.8921360209087 1359.4707263320302 405.8921360209087L1359.4707263320302 405.8921360209087L1368.820398328427 405.8921360209087Q1376.2596110314425 405.8921360209087 1382.7725404406974 408.6999322551208Q1389.2854698499523 411.5077284893329 1394.148457142196 416.37071578157656Q1399.0403907873697 421.2626494267502 1401.848187021582 427.7755788360051Q1404.6559832557941 434.28850824526 1404.6559832557941 441.7277209482756L1404.6559832557941 441.7277209482756L1404.6559832557941 445.4907468291784L1391.514339025564 447.63277694600004L1391.514339025564 441.7277209482756Q1391.514339025564 436.83578730310194 1389.6907187909728 432.6096197753188Q1387.8381522034515 428.38345224753556 1384.6829997340792 425.2282997781632Q1381.5278472647065 422.07314730879085 1377.3306260898535 420.2495270741995Q1373.1044585620702 418.4259068396081 1368.2125249168967 418.4259068396081L1368.2125249168967 418.4259068396081L1360.0785997435605 418.4259068396081Q1355.186666098387 418.4259068396081 1350.9604985706037 420.2495270741995Q1346.7343310428205 422.07314730879085 1343.5212858675882 425.2282997781632Q1340.3371870452856 428.38345224753556 1338.4846204577643 432.6096197753188Q1336.6610002231728 436.83578730310194 1336.6610002231728 441.7277209482756L1336.6610002231728 441.7277209482756L1336.6610002231728 444.4776244766277Q1336.6610002231728 451.48264188569294 1339.6135282220353 456.2877364720765Q1342.5660562208973 461.0638847055301 1347.4579898660709 464.47955435127267Q1352.3209771583147 467.8662776440852 1358.4865503324095 470.3556639960671Q1364.6521235065038 472.873996700979 1371.1650529157587 475.4502221117509Q1377.677982325014 478.05539387545286 1383.8435554991083 481.1526536389652Q1389.980182320273 484.2499134024775 1394.8721159654465 488.7944908124909Q1399.76404961062 493.3101218695743 1402.7165776094826 499.8230512788292Q1405.6691056083446 506.3359806880841 1405.6691056083446 515.7145990374111L1405.6691056083446 515.7145990374111ZM1499.281610984035 525.2668955043183L1499.281610984035 525.2668955043183Q1499.281610984035 531.577200443063 1496.8790636908434 537.1638465585572Q1494.5054627505815 542.7794390269814 1490.3371879286583 546.9477138489046Q1486.168913106735 551.1159886708276 1480.553320638311 553.5185359640195Q1474.966674522817 555.8921369042813 1468.6563695840723 555.8921369042813L1468.6563695840723 555.8921369042813L1460.319819940226 555.8921369042813Q1454.0095150014808 555.8921369042813 1448.3939225330569 553.5185359640195Q1442.8072764175627 551.1159886708276 1438.6390015956395 546.9477138489046Q1434.4707267737163 542.7794390269814 1432.0681794805246 537.1638465585572Q1429.665632187333 531.577200443063 1429.665632187333 525.2668955043183L1429.665632187333 525.2668955043183L1429.665632187333 478.258018345963Q1429.665632187333 471.94771340721826 1432.0681794805246 466.3610672917241Q1434.4707267737163 460.74547482329984 1438.6390015956395 456.57720000137675Q1442.8072764175627 452.4089251794536 1448.3939225330569 450.0063778862618Q1454.0095150014808 447.63277694600004 1460.319819940226 447.63277694600004L1460.319819940226 447.63277694600004L1468.6563695840723 447.63277694600004Q1474.966674522817 447.63277694600004 1480.553320638311 450.0063778862618Q1486.168913106735 452.4089251794536 1490.3371879286583 456.57720000137675Q1494.5054627505815 460.74547482329984 1496.8790636908434 466.3610672917241Q1499.281610984035 471.94771340721826 1499.281610984035 478.258018345963L1499.281610984035 478.258018345963L1499.281610984035 525.2668955043183ZM1486.7767865182655 525.9905543275688L1486.7767865182655 477.53435952271246Q1486.7767865182655 473.77133364180963 1485.3294688717647 470.4714494077872Q1483.9110975781932 467.1715651737647 1481.4796039320718 464.71112517471283Q1479.0191639330196 462.27963152859104 1475.719279698997 460.8612602350199Q1472.419395464975 459.41394258851886 1468.6563695840723 459.41394258851886L1468.6563695840723 459.41394258851886L1460.319819940226 459.41394258851886Q1456.527847706393 459.41394258851886 1453.2279634723704 460.8612602350199Q1449.928079238348 462.27963152859104 1447.496585592226 464.71112517471283Q1445.0361455931743 467.1715651737647 1443.6177742996033 470.4714494077872Q1442.1994030060323 473.77133364180963 1442.1994030060323 477.53435952271246L1442.1994030060323 477.53435952271246L1442.1994030060323 525.9905543275688Q1442.1994030060323 529.7535802084717 1443.6177742996033 533.0534644424941Q1445.0361455931743 536.3533486765166 1447.496585592226 538.8137886755685Q1449.928079238348 541.2452823216903 1453.2279634723704 542.6636536152614Q1456.527847706393 544.0820249088324 1460.319819940226 544.0820249088324L1460.319819940226 544.0820249088324L1468.6563695840723 544.0820249088324Q1472.419395464975 544.0820249088324 1475.719279698997 542.6636536152614Q1479.0191639330196 541.2452823216903 1481.4796039320718 538.8137886755685Q1483.9110975781932 536.3533486765166 1485.3294688717647 533.0534644424941Q1486.7767865182655 529.7535802084717 1486.7767865182655 525.9905543275688L1486.7767865182655 525.9905543275688ZM1540.9933055561964 553.8658921991798L1528.4884810904268 553.8658921991798L1528.4884810904268 407.94732707894025L1540.9933055561964 407.94732707894025L1540.9933055561964 553.8658921991798ZM1639.8161544592904 553.8658921991798L1635.6478796373672 553.8658921991798L1628.7297012870922 543.2715270267918Q1624.445641053449 549.0897439657263 1618.0484970559141 552.5054136114688Q1611.6224067054495 555.8921369042813 1604.0095158848535 555.8921369042813L1604.0095158848535 555.8921369042813L1600.8543634154812 555.8921369042813Q1594.5440584767366 555.8921369042813 1588.9284660083122 553.5185359640195Q1583.341819892818 551.1159886708276 1579.1735450708948 546.9477138489046Q1575.005270248972 542.7794390269814 1572.6027229557799 537.1638465585572Q1570.2001756625882 531.577200443063 1570.2001756625882 525.2668955043183L1570.2001756625882 525.2668955043183L1570.2001756625882 449.65902165110157L1582.7339464812876 449.65902165110157L1582.7339464812876 525.9905543275688Q1582.7339464812876 529.7535802084717 1584.1523177748586 533.0534644424941Q1585.5706890684296 536.3533486765166 1588.0311290674817 538.8137886755685Q1590.4626227136037 541.2452823216903 1593.7625069476258 542.6636536152614Q1597.0913375345785 544.0820249088324 1600.8543634154812 544.0820249088324L1600.8543634154812 544.0820249088324L1609.1909130593276 544.0820249088324Q1612.9539389402303 544.0820249088324 1616.2538231742528 542.6636536152614Q1619.5826537612052 541.2452823216903 1622.014147407327 538.8137886755685Q1624.445641053449 536.3533486765166 1625.86401234702 533.0534644424941Q1627.3113299935212 529.7535802084717 1627.3113299935212 525.9905543275688L1627.3113299935212 525.9905543275688L1627.3113299935212 449.65902165110157L1639.8161544592904 449.65902165110157L1639.8161544592904 553.8658921991798ZM1714.208281489446 553.8658921991798L1702.8034184350176 553.8658921991798Q1697.1009869078034 553.8658921991798 1692.0643214979796 551.7238620823582Q1687.0276560881562 549.5818319655366 1683.322522913113 545.8188060846337Q1679.6173897380704 542.0557802037308 1677.4174669153886 537.0770074997672Q1675.246490445637 532.0982347958034 1675.246490445637 526.3958032685891L1675.246490445637 526.3958032685891L1675.246490445637 461.5559727053405L1656.518200099913 461.5559727053405L1656.518200099913 449.65902165110157L1675.246490445637 449.65902165110157L1675.246490445637 424.6204263666328L1687.7513149114066 422.59418166153125L1687.7513149114066 449.65902165110157L1714.208281489446 449.65902165110157L1714.208281489446 461.5559727053405L1687.7513149114066 461.5559727053405L1687.7513149114066 527.0036766801196Q1687.7513149114066 530.158829149492 1688.9091690286073 532.850839971984Q1690.0959694987382 535.542850794476 1692.1222142038396 537.5690954995775Q1694.1484589089414 539.6242865576091 1696.8983624372931 540.78214067481Q1699.6482659656454 541.9689411449408 1702.8034184350176 541.9689411449408L1702.8034184350176 541.9689411449408L1714.208281489446 541.9689411449408L1714.208281489446 553.8658921991798ZM1754.9068537090566 424.6204263666328L1740.375784538186 424.6204263666328L1740.375784538186 407.94732707894025L1754.9068537090566 407.94732707894025L1754.9068537090566 424.6204263666328ZM1753.8937313565061 553.8658921991798L1741.3889068907365 553.8658921991798L1741.3889068907365 449.65902165110157L1753.8937313565061 449.65902165110157L1753.8937313565061 553.8658921991798ZM1852.7165802596 525.2668955043183L1852.7165802596 525.2668955043183Q1852.7165802596 531.577200443063 1850.3140329664084 537.1638465585572Q1847.9404320261465 542.7794390269814 1843.7432108512935 546.9477138489046Q1839.5749360293703 551.1159886708276 1833.988289913876 553.5185359640195Q1828.4016437983819 555.8921369042813 1822.0913388596373 555.8921369042813L1822.0913388596373 555.8921369042813L1813.725842862861 555.8921369042813Q1807.415537924116 555.8921369042813 1801.8288918086218 553.5185359640195Q1796.242245693128 551.1159886708276 1792.0450245182747 546.9477138489046Q1787.8767496963515 542.7794390269814 1785.5031487560896 537.1638465585572Q1783.1006014628979 531.577200443063 1783.1006014628979 525.2668955043183L1783.1006014628979 525.2668955043183L1783.1006014628979 478.258018345963Q1783.1006014628979 471.94771340721826 1785.5031487560896 466.3610672917241Q1787.8767496963515 460.74547482329984 1792.0450245182747 456.57720000137675Q1796.242245693128 452.4089251794536 1801.8288918086218 450.0063778862618Q1807.415537924116 447.63277694600004 1813.725842862861 447.63277694600004L1813.725842862861 447.63277694600004L1822.0913388596373 447.63277694600004Q1828.4016437983819 447.63277694600004 1833.988289913876 450.0063778862618Q1839.5749360293703 452.4089251794536 1843.7432108512935 456.57720000137675Q1847.9404320261465 460.74547482329984 1850.3140329664084 466.3610672917241Q1852.7165802596 471.94771340721826 1852.7165802596 478.258018345963L1852.7165802596 478.258018345963L1852.7165802596 525.2668955043183ZM1840.1828094409007 525.9905543275688L1840.1828094409007 477.53435952271246Q1840.1828094409007 473.77133364180963 1838.7644381473297 470.4714494077872Q1837.3460668537587 467.1715651737647 1834.9145732076367 464.71112517471283Q1832.454133208585 462.27963152859104 1829.1542489745625 460.8612602350199Q1825.85436474054 459.41394258851886 1822.0913388596373 459.41394258851886L1822.0913388596373 459.41394258851886L1813.725842862861 459.41394258851886Q1809.962816981958 459.41394258851886 1806.6629327479359 460.8612602350199Q1803.3630485139133 462.27963152859104 1800.9026085148612 464.71112517471283Q1798.4711148687397 467.1715651737647 1797.0527435751683 470.4714494077872Q1795.6343722815973 473.77133364180963 1795.6343722815973 477.53435952271246L1795.6343722815973 477.53435952271246L1795.6343722815973 525.9905543275688Q1795.6343722815973 529.7535802084717 1797.0527435751683 533.0534644424941Q1798.4711148687397 536.3533486765166 1800.9026085148612 538.8137886755685Q1803.3630485139133 541.2452823216903 1806.6629327479359 542.6636536152614Q1809.962816981958 544.0820249088324 1813.725842862861 544.0820249088324L1813.725842862861 544.0820249088324L1822.0913388596373 544.0820249088324Q1825.85436474054 544.0820249088324 1829.1542489745625 542.6636536152614Q1832.454133208585 541.2452823216903 1834.9145732076367 538.8137886755685Q1837.3460668537587 536.3533486765166 1838.7644381473297 533.0534644424941Q1840.1828094409007 529.7535802084717 1840.1828094409007 525.9905543275688L1840.1828094409007 525.9905543275688ZM1947.3422079878414 553.8658921991798L1934.8373835220718 553.8658921991798L1934.8373835220718 477.53435952271246Q1934.8373835220718 473.77133364180963 1933.4190122285008 470.4714494077872Q1931.9716945819996 467.1715651737647 1929.5402009358781 464.71112517471283Q1927.1087072897558 462.27963152859104 1923.7798767028034 460.8612602350199Q1920.479992468781 459.41394258851886 1916.7169665878782 459.41394258851886L1916.7169665878782 459.41394258851886L1908.3804169440318 459.41394258851886Q1904.6173910631292 459.41394258851886 1901.3175068291066 460.8612602350199Q1897.9886762421543 462.27963152859104 1895.5571825960324 464.71112517471283Q1893.1256889499105 467.1715651737647 1891.6783713034097 470.4714494077872Q1890.2600000098382 473.77133364180963 1890.2600000098382 477.53435952271246L1890.2600000098382 477.53435952271246L1890.2600000098382 553.8658921991798L1877.755175544069 553.8658921991798L1877.755175544069 449.65902165110157L1881.9234503659923 449.65902165110157L1888.7258433045472 460.2533868234895Q1893.0099035381904 454.43516988455514 1899.4649402415853 451.01950023881255Q1905.9199769449801 447.63277694600004 1913.561814118506 447.63277694600004L1913.561814118506 447.63277694600004L1916.7169665878782 447.63277694600004Q1923.0272715266228 447.63277694600004 1928.613917642117 450.0063778862618Q1934.2295101105415 452.4089251794536 1938.3977849324647 456.57720000137675Q1942.5660597543879 460.74547482329984 1944.9686070475796 466.3610672917241Q1947.3422079878414 471.94771340721826 1947.3422079878414 478.258018345963L1947.3422079878414 478.258018345963L1947.3422079878414 553.8658921991798ZM2044.023026774114 527.4089256211399L2044.023026774114 527.4089256211399Q2044.023026774114 533.7192305598846 2041.475747716272 538.9585204402185Q2038.9284686584301 544.1978103205524 2034.5575693659966 547.9608362014553Q2030.1866700735636 551.7238620823582 2024.4263458404894 553.8079994933197Q2018.694967960345 555.8921369042813 2012.3846630215999 555.8921369042813L2012.3846630215999 555.8921369042813L2004.048113377754 555.8921369042813Q1997.7378084390093 555.8921369042813 1991.9774842059346 553.5185359640195Q1986.2171599728604 551.1159886708276 1981.9041533862874 546.9477138489046Q1977.5622004467841 542.7794390269814 1974.985975036012 537.1638465585572Q1972.38080327231 531.577200443063 1972.38080327231 525.2668955043183L1972.38080327231 525.2668955043183L1972.38080327231 521.0986206823952L1984.9145740910094 519.0723759772936L1984.9145740910094 525.9905543275688Q1984.9145740910094 529.7535802084717 1986.4776771492307 533.0534644424941Q1988.0697265603822 536.3533486765166 1990.7038446770139 538.8137886755685Q1993.3379627936456 541.2452823216903 1996.8115251452482 542.6636536152614Q2000.256141143921 544.0820249088324 2004.048113377754 544.0820249088324L2004.048113377754 544.0820249088324L2012.3846630215999 544.0820249088324Q2016.147688902503 544.0820249088324 2019.5923049011753 542.9820634974916Q2023.065867252778 541.8531557332208 2025.7578780752701 539.7690183222592Q2028.4498888977619 537.6848809112976 2030.0419383089134 534.7323529124353Q2031.6050413671346 531.7798249135732 2031.6050413671346 528.0167990326704L2031.6050413671346 528.0167990326704Q2031.6050413671346 522.4301529171762 2029.1735477210127 518.8697515067835Q2026.7420540748908 515.3093500963907 2022.7185110176179 512.9068028031991Q2018.694967960345 510.5042555100072 2013.542517138801 508.9411524517861Q2008.419012670187 507.3491030406349 2003.0060446722728 505.78599998241367Q1997.6220230272888 504.1939505712625 1992.4985185586752 502.16770586616093Q1987.3460677371313 500.14146116105945 1983.3225246798584 496.81263057410695Q1979.298981622585 493.51274634008445 1976.8674879764635 488.5339736361207Q1974.4070479774114 483.555200932157 1974.4070479774114 476.1159882291414L1974.4070479774114 476.1159882291414Q1974.4070479774114 469.80568329039664 1976.8674879764635 464.56639341006274Q1979.298981622585 459.32710352972884 1983.4672564445082 455.56407764882596Q1987.6644776193616 451.8010517679232 1993.1932310289958 449.7169143569616Q1998.7509307915598 447.63277694600004 2005.0612357303048 447.63277694600004L2005.0612357303048 447.63277694600004L2012.3846630215999 447.63277694600004Q2018.694967960345 447.63277694600004 2024.2816140758391 450.0063778862618Q2029.897206544263 452.4089251794536 2034.0654813661863 456.57720000137675Q2038.2337561881095 460.74547482329984 2040.607357128371 466.3610672917241Q2043.009904421563 471.94771340721826 2043.009904421563 478.258018345963L2043.009904421563 478.258018345963L2043.009904421563 478.66326728698334L2030.5050799557935 480.6895119920849L2030.5050799557935 477.53435952271246Q2030.5050799557935 473.77133364180963 2029.0577623092927 470.4714494077872Q2027.6393910157217 467.1715651737647 2025.2078973695998 464.71112517471283Q2022.7474573705476 462.27963152859104 2019.4475731365255 460.8612602350199Q2016.147688902503 459.41394258851886 2012.3846630215999 459.41394258851886L2012.3846630215999 459.41394258851886L2005.0612357303048 459.41394258851886Q2001.2982098494017 459.41394258851886 1997.9693792624494 460.5428503527897Q1994.6694950284268 461.67175811706056 1992.238001382305 463.7558955280221Q1989.7775613832532 465.8400329389837 1988.3591900896822 468.7925609378459Q1986.9408187961112 471.7450889367081 1986.9408187961112 475.508114817611L1986.9408187961112 475.508114817611Q1986.9408187961112 480.892136462595 1989.3723124422327 484.30780610833756Q1991.8327524412848 487.72347575408014 1995.8562954985578 490.06813034141186Q1999.8508922029005 492.41278492874363 2005.0033430244443 493.97588798696484Q2010.1268474930584 495.56793739811604 2015.4819227851121 497.2468258680573Q2020.8369980771663 498.9257143379985 2025.9605025457804 501.0387981018901Q2031.1129533673243 503.1808282187117 2035.1364964245972 506.53860515859424Q2039.13109312894 509.89638209847675 2041.591533127992 514.9330475083005Q2044.023026774114 519.9697129181243 2044.023026774114 527.4089256211399Z " fill="#8aaae5" transform="matrix(0.42807738606098344,0,0,0.4280773860609833,0,94.14093740256268)"/></g></svg>